<svg width="122" height="40" viewBox="0 0 122 40" fill="none" xmlns="http://www.w3.org/2000/svg">
<g clip-path="url(#clip0_0_786)">
<path d="M14.1489 8.54049C14.1489 11.1384 14.1489 13.7439 14.1641 16.3418C14.1641 18.5837 13.4369 20.765 11.3541 21.9163C8.9228 23.2493 5.46902 22.9085 2.7575 22.6283C2.65147 22.6283 2.56058 22.6055 2.46211 22.598C2.553 20.7272 2.51513 18.8336 2.42424 16.9704C2.31063 14.4407 3.84059 11.4262 6.55969 11.0021C9.506 10.54 12.0736 10.2219 13.4672 8.5935C13.5127 8.54806 13.5581 8.49504 13.596 8.44202C13.8005 8.16178 14.0201 7.89669 14.2398 7.62402C14.1716 7.91941 14.1489 8.22995 14.1489 8.53291V8.54049Z" fill="white"/>
<path d="M5.23755 39.5713C7.26741 39.7001 9.3124 39.6698 11.3423 39.7076C13.7129 39.7455 16.1442 40.0409 18.4316 39.6243C21.7187 39.026 25.4149 36.8825 26.6343 33.709C27.7628 30.7702 27.2327 27.2634 25.2861 24.7943C25.1498 24.6277 25.0059 24.461 24.8468 24.2944C22.8776 22.1434 19.8252 21.0148 16.9168 21.4011C13.3039 21.8783 10.1228 24.7185 9.18365 28.2405C8.60044 30.437 9.1079 32.7698 8.76707 35.0041C8.48683 36.8522 6.90385 38.7457 5.22998 39.5713H5.23755Z" fill="white"/>
<path d="M25.5417 0.155762C25.3599 0.708669 25.5796 1.30702 25.8144 1.83721C28.8289 8.5554 36.9028 13.0998 36.6226 21.1738C36.4938 24.8245 34.676 29.1114 31.6237 31.2776C31.404 31.4367 31.1995 31.573 30.942 31.6487C30.3588 30.5581 30.2982 28.9675 29.8059 27.7708C29.1848 26.2636 28.3668 24.7866 27.2232 23.6202C26.1249 22.5068 24.754 21.863 23.6558 20.7724C21.3533 18.4699 19.899 15.319 19.7097 12.0622C19.437 7.42687 21.7547 2.82183 25.5493 0.17091L25.5417 0.155762Z" fill="white"/>
<path d="M4.57794 16.3648C4.57794 16.3648 4.4719 14.3425 6.5472 14.441C6.5472 14.441 7.3046 16.6526 4.57794 16.3648Z" fill="#240053" stroke="white" stroke-width="0.37092" stroke-miterlimit="10"/>
<path d="M3.88858 33.512C5.78768 33.512 7.32721 31.9725 7.32721 30.0734C7.32721 28.1743 5.78768 26.6348 3.88858 26.6348C1.98948 26.6348 0.449951 28.1743 0.449951 30.0734C0.449951 31.9725 1.98948 33.512 3.88858 33.512Z" fill="white"/>
<path d="M44.7525 33.5648L51.3419 15.9551H54.8714L61.4609 33.5648H58.0146L56.4014 29.293H49.8347L48.2214 33.5648H44.7373H44.7525ZM50.9405 26.4376H55.3334L53.1142 19.7118L50.9405 26.4376Z" fill="white"/>
<path d="M63.2261 33.5649V21.6357H66.3466V24.4305C66.6344 23.408 67.0889 22.643 67.7099 22.1356C68.3234 21.6281 68.9975 21.3706 69.7322 21.3706C70.4669 21.3706 71.1258 21.5145 71.6939 21.8099L71.1561 24.6047C70.679 24.3851 70.0806 24.279 69.3459 24.279C67.3464 24.279 66.3542 25.9681 66.3542 29.3385V33.5649H63.2336H63.2261Z" fill="white"/>
<path d="M73.2164 30.1637C72.8983 29.3836 72.7393 28.5277 72.7393 27.6112C72.7393 26.6948 72.8983 25.8389 73.2164 25.0436C73.5345 24.2483 73.9587 23.5894 74.4964 23.0516C75.0342 22.5214 75.6628 22.1049 76.3748 21.8095C77.0943 21.5141 77.8442 21.3626 78.6319 21.3626C79.4196 21.3626 80.1921 21.5292 80.8738 21.8549C81.5555 22.1806 82.0554 22.6426 82.381 23.2258V15.1216H85.5016V33.5569H82.381V31.936C82.0554 32.5192 81.5555 32.9812 80.8662 33.3069C80.1846 33.6402 79.4347 33.7992 78.6319 33.7992C77.829 33.7992 77.0943 33.6478 76.3824 33.3524C75.6704 33.057 75.0418 32.648 74.504 32.1178C73.9663 31.5876 73.5345 30.9362 73.2164 30.1485V30.1637ZM76.0113 27.5658C76.0113 28.5277 76.3142 29.3078 76.9126 29.9137C77.5185 30.5197 78.2608 30.8226 79.1469 30.8226C80.0331 30.8226 80.7753 30.5197 81.404 29.9213C82.0326 29.323 82.3356 28.5353 82.3356 27.5734C82.3356 26.6114 82.0175 25.8313 81.3813 25.2481C80.745 24.6649 80.0028 24.3771 79.1469 24.3771C78.291 24.3771 77.5109 24.6725 76.9126 25.2633C76.3142 25.854 76.0113 26.6266 76.0113 27.5809V27.5658Z" fill="white"/>
<path d="M88.5009 17C88.5009 16.4773 88.6978 16.0305 89.0992 15.6669C89.5006 15.3034 89.9702 15.1216 90.5156 15.1216C91.0609 15.1216 91.5229 15.3034 91.9168 15.6669C92.3106 16.0305 92.5 16.4698 92.5 17C92.5 17.5301 92.303 17.977 91.9168 18.3406C91.5305 18.7041 91.0609 18.8859 90.5156 18.8859C89.9702 18.8859 89.4855 18.7041 89.0916 18.3406C88.6978 17.977 88.5009 17.5301 88.5009 17ZM88.9402 33.5644V21.6353H92.0607V33.5644H88.9402Z" fill="white"/>
<path d="M95.5737 33.5643V18.8857H98.6943V33.5643H95.5737Z" fill="white"/>
<path d="M102.207 33.5647V15.1294H105.328V33.5647H102.207Z" fill="white"/>
<path d="M108.117 27.5813C108.117 26.6497 108.284 25.7939 108.625 24.9986C108.965 24.2109 109.42 23.5519 109.988 23.0293C110.556 22.5067 111.207 22.0977 111.942 21.8099C112.677 21.5221 113.442 21.3706 114.237 21.3706C114.896 21.3706 115.578 21.5069 116.282 21.7872C116.986 22.0674 117.539 22.5067 117.941 23.1051V21.6281H121.061V33.5573H117.941V32.0122C117.592 32.5802 117.054 33.0195 116.327 33.3225C115.6 33.6254 114.903 33.7769 114.244 33.7769C113.177 33.7769 112.184 33.527 111.26 33.0347C110.336 32.5424 109.579 31.8077 108.996 30.8458C108.412 29.8839 108.125 28.7932 108.125 27.5662L108.117 27.5813ZM111.389 27.5813C111.389 28.513 111.715 29.2779 112.374 29.8839C113.033 30.4898 113.798 30.7927 114.676 30.7927C115.555 30.7927 116.327 30.5049 116.971 29.9217C117.615 29.3385 117.933 28.5584 117.933 27.5813C117.933 26.6043 117.607 25.8242 116.956 25.241C116.305 24.6578 115.54 24.3699 114.669 24.3699C113.798 24.3699 113.01 24.6729 112.359 25.2713C111.707 25.8772 111.381 26.6422 111.381 27.5813H111.389Z" fill="white"/>
</g>
<defs>
<clipPath id="clip0_0_786">
<rect width="120.609" height="39.6881" fill="white" transform="translate(0.449951 0.155762)"/>
</clipPath>
</defs>
</svg>
